<?xml version="1.0" standalone="no"?>
<!DOCTYPE svg PUBLIC "-//W3C//DTD SVG 20010904//EN"
 "http://www.w3.org/TR/2001/REC-SVG-20010904/DTD/svg10.dtd">
<svg version="1.0" xmlns="http://www.w3.org/2000/svg"
 width="1024.000000pt" height="1035.000000pt" viewBox="0 0 1024.000000 1035.000000"
 preserveAspectRatio="xMidYMid meet">

<g transform="translate(0.000000,1035.000000) scale(0.100000,-0.100000)"
fill="#000000" stroke="none">
<path d="M4820 9964 c-172 -15 -366 -38 -490 -59 -1206 -202 -2307 -840 -3104
-1798 -680 -818 -1100 -1841 -1177 -2867 -15 -203 -7 -700 15 -880 117 -957
490 -1811 1109 -2539 116 -136 432 -452 567 -567 769 -654 1672 -1077 2633
-1234 113 -19 171 -20 814 -20 689 0 692 0 837 25 794 134 1553 452 2228 932
747 531 1341 1251 1686 2043 79 183 149 380 207 580 91 319 95 348 93 662 -1
150 -3 255 -5 233 -127 -1416 -875 -2660 -2113 -3517 -123 -85 -411 -257 -570
-341 -319 -168 -755 -335 -1096 -421 -466 -117 -802 -159 -1274 -160 -367 0
-611 22 -930 85 -715 141 -1338 397 -1940 799 -907 605 -1574 1439 -1925 2407
-125 344 -212 732 -251 1118 -22 222 -22 657 0 881 169 1711 1240 3260 2794
4038 297 149 550 248 867 341 892 260 1893 257 2801 -10 1354 -399 2490 -1357
3134 -2643 261 -522 421 -1056 490 -1640 l18 -157 1 277 c1 274 1 277 -30 414
-79 353 -213 734 -378 1079 -560 1167 -1572 2116 -2761 2588 -431 171 -858
277 -1345 333 -123 15 -792 28 -905 18z"/>
<path d="M4834 9690 c-104 -9 -131 -20 -140 -57 -11 -42 5 -245 21 -268 7 -11
76 -86 153 -166 l139 -146 6 -84 c12 -150 21 -135 -84 -144 -108 -8 -109 -8
-109 85 0 36 -3 82 -7 103 -6 37 -6 38 -47 35 l-41 -3 4 -115 c4 -132 17 -176
57 -186 38 -10 254 5 284 19 42 21 49 50 40 178 -4 64 -14 128 -22 142 -7 14
-76 93 -154 174 l-141 149 -6 94 c-3 52 -4 96 -1 99 5 6 177 19 183 14 2 -1 6
-48 9 -103 l5 -101 46 3 46 3 -3 55 c-6 125 -14 180 -31 201 -21 26 -74 31
-207 19z"/>
<path d="M5230 9676 c0 -13 -3 -31 -6 -39 -4 -12 10 -16 71 -22 l77 -7 -7
-161 c-3 -89 -13 -281 -20 -427 -7 -146 -13 -266 -12 -266 1 -1 22 -4 47 -5
42 -4 45 -2 47 21 1 14 10 208 19 433 l18 408 73 -7 73 -7 0 41 0 41 -52 5
c-29 3 -115 8 -190 11 l-138 6 0 -25z"/>
<path d="M4420 9641 c-21 -4 -36 -12 -38 -22 -2 -10 26 -196 62 -415 36 -220
68 -423 72 -451 l7 -53 39 0 c26 0 41 5 45 16 3 8 -13 129 -35 267 -23 139
-55 342 -73 452 -17 110 -34 203 -38 206 -3 3 -22 3 -41 0z"/>
<path d="M5757 9188 c-87 -248 -156 -453 -154 -454 1 -2 21 -6 44 -10 l41 -6
32 98 c17 54 33 100 35 102 1 2 32 -2 66 -8 121 -20 109 -6 109 -125 l0 -104
43 -9 c23 -5 45 -7 49 -5 4 2 5 43 2 91 -3 48 -9 262 -13 476 -10 422 -7 406
-67 406 l-31 0 -156 -452z m173 24 l0 -238 -71 12 c-38 6 -72 14 -75 16 -4 4
138 448 143 448 2 0 3 -107 3 -238z"/>
<path d="M3955 9543 c-71 -19 -131 -36 -132 -37 -2 -2 210 -858 222 -897 6
-17 12 -19 38 -13 59 12 59 12 11 196 -25 94 -41 175 -37 178 5 4 57 20 116
35 112 29 137 46 137 90 0 42 -110 449 -126 467 -25 26 -78 22 -229 -19z m165
-47 c0 -2 20 -85 45 -185 25 -100 45 -188 45 -196 0 -9 -24 -21 -67 -34 -126
-36 -109 -54 -163 169 -27 107 -46 197 -43 200 2 3 41 15 86 27 91 23 97 25
97 19z"/>
<path d="M6359 9531 c-20 -13 -31 -39 -64 -158 -31 -111 -33 -102 66 -318 84
-183 88 -211 50 -333 -18 -58 -26 -72 -39 -68 -127 34 -162 48 -162 64 0 10
11 56 25 103 13 46 25 89 25 95 0 6 -18 16 -41 22 -47 12 -42 19 -83 -129 -32
-118 -32 -130 -3 -156 19 -17 162 -67 250 -87 65 -15 81 6 127 173 37 132 41
109 -66 349 -41 91 -74 174 -74 185 0 37 42 177 53 177 12 0 170 -41 176 -46
2 -2 -9 -44 -23 -94 -14 -50 -26 -95 -26 -100 0 -9 80 -35 84 -28 10 15 56
201 56 225 0 45 -19 59 -128 93 -110 35 -179 45 -203 31z"/>
<path d="M3423 9374 c-18 -8 -33 -17 -33 -22 0 -4 41 -209 90 -455 50 -247 90
-457 90 -468 0 -10 2 -19 5 -19 15 0 85 34 85 41 0 4 -9 47 -20 94 -11 47 -20
89 -20 94 0 8 140 71 158 71 4 0 28 -35 52 -77 61 -109 56 -105 98 -87 20 8
38 16 40 18 2 2 -49 91 -114 197 -64 107 -175 292 -247 412 -72 119 -136 217
-141 216 -6 0 -26 -7 -43 -15z m107 -225 c12 -22 64 -113 116 -201 52 -88 93
-162 91 -164 -11 -11 -137 -52 -141 -46 -2 4 -23 97 -45 207 -23 110 -44 210
-47 223 -10 35 4 26 26 -19z"/>
<path d="M7195 9240 c-24 -10 -395 -747 -395 -785 0 -38 31 -61 163 -126 129
-62 151 -68 182 -45 11 8 105 186 210 395 185 372 190 382 175 409 -11 19 -53
47 -145 94 -130 67 -152 74 -190 58z m147 -128 c47 -22 89 -45 92 -51 5 -7
-298 -626 -337 -688 -10 -15 -197 74 -197 94 0 20 340 695 348 691 4 -2 46
-23 94 -46z"/>
<path d="M2868 9114 c-76 -41 -138 -79 -138 -83 0 -9 351 -678 404 -770 17
-30 36 -56 41 -58 6 -1 25 6 43 17 l33 20 -44 83 c-301 565 -356 670 -357 679
0 8 170 102 174 97 6 -9 156 -287 156 -291 0 -2 -29 -20 -65 -39 -36 -18 -65
-37 -65 -40 0 -15 51 -68 214 -218 96 -89 179 -161 185 -161 11 0 70 27 80 36
3 3 -22 28 -55 57 -32 28 -112 101 -177 161 l-118 109 33 20 c41 25 57 46 58
76 0 34 -141 311 -183 359 -34 37 -70 29 -219 -54z"/>
<path d="M7733 8918 c-31 -35 -452 -665 -463 -693 -16 -43 7 -72 124 -151 126
-84 156 -91 198 -46 30 32 128 185 128 199 0 11 -67 50 -73 43 -3 -3 -30 -45
-61 -93 -31 -49 -60 -87 -65 -85 -18 7 -161 103 -161 109 0 3 34 57 76 120
153 228 347 514 355 523 9 10 31 -3 116 -66 l52 -38 -56 -87 -56 -87 29 -23
c16 -13 34 -23 40 -23 19 0 137 190 137 221 0 39 -17 56 -137 133 -114 73
-149 81 -183 44z"/>
<path d="M2425 8844 c-61 -42 -117 -83 -126 -92 -16 -16 -8 -30 110 -199 69
-100 187 -270 261 -378 74 -109 140 -199 146 -202 11 -4 246 146 258 165 8 13
-35 73 -47 65 -7 -4 -50 -33 -96 -65 l-83 -58 -18 23 c-35 45 -180 267 -180
274 1 4 30 26 66 48 93 57 97 63 70 102 l-23 33 -79 -55 c-43 -30 -82 -54 -86
-53 -11 5 -188 262 -188 274 0 6 34 32 75 59 98 63 101 67 79 105 -10 16 -21
30 -24 30 -3 0 -55 -34 -115 -76z"/>
<path d="M2001 8520 c-78 -67 -141 -125 -141 -128 0 -4 10 -20 23 -36 l23 -29
52 47 c29 25 56 46 61 46 5 0 37 -35 72 -77 35 -43 115 -138 179 -212 63 -74
157 -184 209 -245 51 -61 99 -112 105 -114 6 -1 24 11 40 27 l28 29 -213 248
c-117 137 -244 285 -282 329 l-68 80 50 45 c28 25 51 50 51 56 0 6 -11 21 -24
33 l-24 22 -141 -121z"/>
<path d="M8060 8374 c-348 -400 -378 -437 -383 -455 -9 -33 27 -78 128 -164
82 -70 105 -85 133 -85 41 0 35 -5 267 264 99 116 219 254 268 308 48 54 87
102 87 106 0 5 -13 21 -29 36 l-28 27 -105 -118 c-58 -65 -185 -210 -283 -323
-98 -113 -180 -206 -184 -207 -3 -1 -41 30 -83 70 l-78 72 171 195 c94 107
223 254 286 325 l115 130 -33 28 c-18 15 -36 27 -39 27 -3 0 -98 -106 -210
-236z"/>
<path d="M4970 8533 c-378 -18 -819 -115 -1175 -258 -866 -347 -1576 -998
-1991 -1825 -436 -870 -491 -1837 -158 -2770 88 -246 279 -605 453 -850 224
-317 599 -682 936 -912 514 -351 1084 -566 1710 -645 195 -24 651 -24 855 0
429 52 822 167 1215 357 375 180 691 401 994 695 317 309 549 622 736 995 495
988 499 2109 10 3105 -194 395 -437 730 -756 1040 -766 744 -1761 1120 -2829
1068z m495 -83 c490 -42 923 -163 1358 -381 373 -186 690 -421 997 -735 585
-600 939 -1361 1011 -2174 16 -188 6 -566 -20 -735 -92 -600 -305 -1118 -657
-1593 -123 -166 -233 -289 -408 -460 -588 -569 -1308 -911 -2156 -1024 -154
-21 -703 -17 -870 5 -885 120 -1659 520 -2274 1177 -369 394 -656 898 -801
1406 -88 309 -124 543 -132 851 -9 352 21 628 103 946 201 781 691 1497 1369
2002 376 280 829 497 1275 610 219 56 380 82 660 108 84 8 435 6 545 -3z"/>
<path d="M3505 7492 c-128 -137 -304 -266 -639 -466 -357 -214 -434 -272 -535
-406 -273 -363 -365 -888 -277 -1590 28 -219 43 -284 88 -383 54 -118 138
-168 216 -130 47 23 76 79 93 176 10 60 9 108 -5 287 -21 276 -21 545 0 671
31 183 105 337 222 461 70 75 175 158 198 158 27 0 15 -86 -30 -227 -54 -170
-67 -236 -68 -361 0 -120 14 -176 57 -219 27 -27 40 -33 78 -33 87 0 136 58
223 264 140 334 239 461 581 744 61 51 141 124 178 164 199 215 328 526 324
778 l-2 75 -8 -100 c-10 -128 -46 -252 -114 -391 -92 -189 -214 -333 -405
-477 -365 -277 -488 -429 -650 -809 -43 -100 -98 -172 -129 -166 -20 4 -39 73
-40 149 -1 86 24 211 71 349 37 111 42 136 43 218 l0 94 -34 30 c-30 26 -39
30 -77 25 -61 -6 -150 -67 -258 -175 -123 -124 -178 -213 -231 -380 -59 -184
-72 -438 -41 -833 16 -201 14 -270 -6 -336 -17 -59 -50 -37 -94 62 -67 152
-123 619 -110 920 21 482 138 814 370 1046 75 75 131 114 476 333 80 50 199
132 265 181 194 145 385 348 347 368 -4 2 -38 -30 -77 -71z"/>
<path d="M5128 7085 c-289 -55 -559 -252 -692 -505 -74 -140 -114 -331 -100
-478 5 -57 10 -72 21 -68 7 3 38 13 68 22 l55 15 0 85 c0 316 183 586 495 730
104 47 208 68 355 68 187 1 328 -44 492 -155 418 -284 453 -884 72 -1222 -68
-61 -214 -146 -286 -168 l-68 -21 35 -61 c43 -77 52 -77 190 -8 176 89 315
217 419 389 126 208 156 481 80 724 -99 314 -354 549 -692 640 -101 27 -333
34 -444 13z"/>
<path d="M4515 5900 c-97 -16 -164 -38 -270 -90 -90 -44 -119 -66 -278 -211
-97 -88 -177 -162 -177 -163 0 -4 52 -111 55 -115 2 -1 86 68 187 154 100 87
205 170 233 186 157 90 355 122 493 80 161 -49 239 -138 761 -876 37 -53 354
-514 561 -816 69 -100 142 -208 163 -238 108 -157 37 -16 -226 449 -362 642
-797 1300 -972 1472 -114 112 -232 165 -383 173 -48 2 -114 0 -147 -5z"/>
<path d="M3211 5505 c-173 -49 -317 -202 -353 -378 -10 -46 -13 -173 -12 -484
1 -233 0 -423 -2 -423 -2 0 -30 21 -62 47 -200 163 -433 128 -528 -80 -27 -58
-29 -70 -29 -192 0 -125 1 -132 32 -197 46 -98 102 -146 266 -229 156 -78 212
-113 308 -192 l66 -55 8 -208 c13 -356 19 -391 28 -145 4 118 7 250 7 295 l0
80 -67 66 c-82 80 -167 141 -293 210 -124 69 -181 110 -215 160 -39 56 -57
139 -49 225 15 163 88 255 203 255 90 0 151 -40 331 -216 l135 -133 -3 506
c-4 562 2 671 44 759 74 158 270 244 400 176 54 -27 109 -92 129 -151 36 -103
72 -684 51 -827 l-8 -61 73 9 c160 19 263 60 322 128 21 25 51 83 76 148 64
165 83 189 159 199 38 5 45 2 81 -33 83 -84 109 -276 57 -429 -37 -109 -90
-187 -199 -292 -110 -106 -174 -146 -338 -208 -142 -53 -192 -83 -214 -125
-27 -52 -35 -210 -27 -570 5 -254 9 -321 14 -255 3 50 11 149 17 220 6 72 11
173 11 225 0 118 27 317 46 347 19 30 54 47 196 94 183 61 265 109 394 231
176 167 260 382 234 595 -30 242 -164 369 -336 318 -95 -28 -154 -91 -198
-212 -48 -137 -78 -178 -148 -208 -65 -26 -63 -30 -65 138 -1 145 -33 493 -54
585 -37 166 -187 292 -358 299 -47 2 -97 -3 -130 -12z"/>
<path d="M6423 5414 c-117 -25 -185 -65 -575 -334 -85 -58 -84 -55 -34 -123
15 -20 5 -25 286 143 219 130 276 158 355 175 130 27 226 12 315 -48 42 -29
227 -206 639 -614 96 -95 177 -171 179 -169 9 10 -160 251 -307 436 -102 129
-297 346 -371 412 -69 63 -141 105 -214 124 -64 17 -191 16 -273 -2z"/>
<path d="M3291 5253 c-22 -87 -46 -316 -61 -587 -9 -176 -4 -437 31 -1546 20
-656 28 -586 99 950 6 119 10 320 10 447 0 303 -36 753 -61 768 -4 3 -12 -11
-18 -32z"/>
<path d="M4975 5161 c-108 -57 -199 -113 -320 -195 -49 -33 -92 -62 -94 -64
-8 -4 58 -132 67 -132 15 0 180 144 300 262 175 171 187 204 47 129z"/>
<path d="M6585 5121 c-119 -43 -206 -96 -430 -264 -196 -147 -285 -218 -305
-242 -14 -17 -13 -18 5 -11 22 8 415 223 542 297 94 54 205 142 246 193 15 19
27 37 27 40 0 10 -34 5 -85 -13z"/>
<path d="M6807 4846 c-118 -41 -192 -85 -453 -269 -213 -151 -316 -229 -310
-235 6 -6 636 321 692 358 65 44 172 137 185 161 14 26 2 25 -114 -15z"/>
<path d="M5230 4752 c-166 -91 -319 -196 -510 -349 -59 -46 -69 -60 -94 -125
-15 -40 -41 -97 -56 -125 -15 -29 -26 -53 -23 -53 7 0 228 160 322 234 129
101 325 282 407 375 107 122 104 125 -46 43z"/>
<path d="M7085 4565 c-117 -40 -184 -75 -355 -180 -69 -43 -165 -102 -215
-133 -85 -51 -275 -182 -275 -188 0 -6 164 67 448 201 281 132 392 197 480
276 77 71 65 74 -83 24z"/>
<path d="M8310 4593 c-167 -15 -321 -59 -464 -129 -156 -78 -229 -136 -441
-350 -284 -287 -411 -369 -756 -483 -86 -28 -170 -62 -187 -75 -113 -83 -106
-188 15 -243 107 -49 286 -42 558 21 124 29 185 33 185 13 0 -35 -129 -171
-220 -234 -119 -81 -243 -125 -401 -144 -140 -16 -291 -7 -594 37 -376 54
-486 48 -560 -32 -46 -49 -26 -137 44 -195 86 -72 227 -122 466 -164 650 -115
1094 -88 1443 91 193 98 320 214 466 425 288 414 488 654 642 770 39 30 52 45
44 53 -25 25 -180 -100 -340 -275 -113 -125 -137 -155 -370 -465 -173 -230
-239 -296 -395 -390 -262 -160 -659 -215 -1125 -158 -423 52 -675 120 -761
206 l-32 32 29 13 c47 20 206 15 377 -12 521 -82 764 -71 1002 44 102 50 161
92 258 188 120 119 156 197 122 263 -36 70 -127 76 -355 21 -234 -57 -396 -62
-467 -16 -31 21 -29 38 8 69 37 32 67 45 219 98 151 52 325 143 441 230 118
87 153 122 294 283 63 72 139 152 169 177 227 197 441 288 766 326 l75 9 -60
0 c-33 0 -76 -2 -95 -4z"/>
<path d="M4217 4500 c5 -72 3 -84 -21 -135 -49 -98 -143 -154 -356 -210 -177
-46 -250 -83 -300 -149 -79 -105 -117 -221 -141 -428 -22 -199 -24 -886 -2
-864 3 3 16 117 28 253 46 488 74 669 124 799 45 118 81 147 326 272 239 121
309 173 354 263 26 51 31 74 31 130 0 66 -23 149 -40 149 -5 0 -6 -36 -3 -80z"/>
<path d="M5485 4376 c-221 -115 -420 -242 -580 -368 -44 -35 -165 -131 -270
-213 -692 -543 -966 -771 -895 -743 8 3 78 49 155 103 77 53 363 246 635 428
536 358 656 444 825 590 136 118 270 253 258 260 -5 3 -63 -23 -128 -57z"/>
<path d="M7400 4294 c-169 -50 -327 -139 -745 -417 -130 -86 -151 -102 -120
-91 119 44 685 313 759 361 74 48 182 139 190 160 3 7 4 13 3 12 -1 0 -40 -11
-87 -25z"/>
<path d="M2468 4113 c-43 -50 -50 -120 -18 -182 23 -46 117 -133 194 -179 30
-19 97 -52 148 -73 136 -58 177 -81 204 -112 93 -110 119 -227 145 -662 11
-182 13 -204 24 -194 12 13 35 320 35 477 0 145 -4 193 -20 256 -38 151 -132
286 -231 334 -25 12 -92 36 -150 53 -129 38 -236 89 -283 133 -29 27 -36 41
-36 73 0 21 7 48 15 59 8 10 15 22 15 27 0 14 -27 7 -42 -10z"/>
<path d="M5763 4021 c-305 -149 -449 -249 -1092 -756 -62 -50 -125 -99 -140
-110 -67 -50 -418 -335 -430 -349 -32 -39 5 -18 174 95 99 67 331 218 515 336
454 292 604 395 756 517 158 126 329 287 323 304 -3 9 -36 -3 -106 -37z"/>
<path d="M8373 7868 l-352 -313 31 -32 31 -32 46 38 c25 22 86 75 134 120 48
44 93 78 100 75 7 -3 43 -41 80 -85 38 -43 80 -82 93 -85 33 -8 72 9 119 54
22 21 93 84 158 141 124 108 144 134 133 174 -5 21 -196 248 -215 255 -3 1
-165 -139 -358 -310z m477 46 c0 -12 -284 -264 -299 -264 -5 0 -36 32 -67 71
-56 69 -57 71 -38 89 10 11 78 71 149 135 l130 115 62 -68 c35 -37 63 -72 63
-78z"/>
<path d="M1531 8052 c-11 -16 -54 -68 -95 -117 -85 -101 -86 -90 9 -168 33
-27 187 -158 343 -291 156 -132 286 -242 290 -244 5 -1 52 50 107 114 103 123
106 130 58 161 -19 13 -25 8 -93 -72 -64 -75 -75 -84 -89 -72 -9 7 -71 60
-138 117 l-122 103 65 73 c36 40 63 78 60 83 -4 6 -19 19 -34 30 l-28 20 -59
-75 c-32 -41 -61 -74 -65 -74 -4 0 -47 35 -97 78 -49 42 -106 91 -127 107
l-38 31 72 83 72 83 -28 29 c-15 16 -31 29 -35 29 -4 0 -17 -13 -28 -28z"/>
<path d="M8980 7534 c-113 -53 -308 -143 -435 -201 -126 -59 -231 -107 -232
-108 -1 0 9 -18 22 -38 l25 -36 95 44 94 44 43 -62 c24 -34 47 -67 51 -73 4
-7 -25 -43 -70 -87 l-77 -75 25 -30 c13 -17 27 -31 30 -31 6 -1 579 567 647
641 l34 38 -22 35 c-12 19 -22 35 -23 34 -1 0 -94 -43 -207 -95z m-86 -206
c-91 -90 -170 -164 -177 -166 -14 -3 -92 106 -82 116 7 8 406 210 416 211 4 1
-67 -72 -157 -161z"/>
<path d="M1213 7589 c-17 -5 -49 -29 -70 -53 -47 -53 -136 -193 -131 -206 3
-10 764 -520 776 -520 4 0 22 24 40 53 18 28 50 81 73 117 37 59 40 70 37 120
-3 35 -11 66 -23 82 -24 32 -553 386 -604 404 -42 15 -54 16 -98 3z m344 -264
c144 -96 270 -186 279 -200 11 -17 15 -37 11 -59 -6 -40 -67 -137 -83 -132
-15 6 -617 405 -631 419 -10 10 -7 21 13 52 49 73 75 95 113 95 30 0 81 -30
298 -175z"/>
<path d="M9015 7029 c-198 -105 -368 -198 -377 -207 -29 -25 -21 -63 38 -178
70 -134 78 -144 121 -144 26 0 218 84 242 106 8 7 -28 74 -39 74 -6 0 -51 -20
-100 -45 -49 -25 -92 -45 -94 -45 -7 0 -99 170 -95 175 2 2 54 29 114 60 61
32 166 88 235 125 69 37 173 93 232 124 l107 56 45 -83 c25 -46 46 -88 46 -93
0 -6 -40 -30 -90 -54 -49 -24 -90 -45 -90 -47 0 -13 36 -73 44 -73 6 0 58 26
116 58 101 55 105 58 108 94 2 28 -10 60 -58 152 -62 117 -79 136 -122 136
-13 0 -185 -86 -383 -191z"/>
<path d="M764 6840 c-23 -9 -32 -26 -98 -188 -33 -80 -44 -121 -40 -139 8 -29
65 -58 319 -163 83 -35 202 -85 265 -112 210 -90 226 -95 257 -78 14 8 30 22
34 30 19 34 101 236 106 260 7 38 -28 73 -112 108 -38 16 -203 86 -365 155
-162 69 -306 128 -320 131 -14 3 -34 1 -46 -4z m410 -243 c182 -77 334 -143
338 -146 8 -8 -66 -194 -80 -199 -10 -3 -686 273 -709 290 -8 7 -5 23 12 61
13 29 32 74 44 100 18 42 23 48 42 42 13 -4 171 -71 353 -148z"/>
<path d="M9390 6584 c-518 -217 -560 -236 -560 -250 0 -23 23 -64 36 -64 7 0
89 32 181 71 92 38 283 118 423 176 140 58 257 108 259 109 6 5 -31 84 -38 83
-3 -1 -139 -57 -301 -125z"/>
<path d="M9720 6390 c-14 -4 -180 -55 -370 -114 -190 -59 -358 -112 -373 -118
-31 -12 -47 -36 -47 -69 0 -31 69 -259 86 -286 26 -42 51 -38 311 42 588 181
563 172 579 211 14 32 12 41 -31 173 -25 76 -53 145 -63 155 -20 17 -51 19
-92 6z m74 -181 c14 -48 26 -94 26 -103 0 -11 -32 -25 -112 -50 -446 -138
-607 -186 -619 -186 -9 0 -25 35 -43 93 -16 50 -30 97 -33 103 -2 6 88 39 219
79 123 38 291 90 373 116 83 25 153 43 156 40 3 -3 18 -45 33 -92z"/>
<path d="M520 6244 c-7 -20 -8 -39 -4 -44 5 -4 104 -37 219 -73 116 -35 311
-97 434 -136 123 -39 227 -71 231 -71 8 0 30 54 30 75 0 7 -28 20 -62 30 -35
9 -153 45 -263 80 -437 139 -554 175 -563 175 -6 0 -16 -16 -22 -36z"/>
<path d="M449 5964 c-28 -32 -77 -271 -65 -319 8 -32 24 -40 121 -60 484 -101
705 -145 737 -145 50 0 61 19 87 152 27 135 27 180 2 202 -27 25 -428 108
-435 91 -9 -24 -30 -165 -25 -170 3 -2 20 -8 37 -11 30 -6 31 -5 43 41 11 45
13 47 43 42 74 -14 269 -57 273 -61 6 -5 -27 -169 -37 -186 -6 -9 -31 -7 -111
10 -57 11 -225 46 -374 76 -148 31 -272 57 -276 59 -5 4 28 195 36 203 1 2 46
-7 100 -19 104 -25 115 -22 115 29 0 12 0 25 0 29 1 8 -124 36 -210 49 -37 5
-48 3 -61 -12z"/>
<path d="M9925 5793 c-11 -3 -211 -38 -445 -78 l-425 -72 3 -34 c2 -19 7 -37
10 -41 4 -3 81 6 172 22 91 15 234 40 319 54 84 15 155 26 156 24 2 -2 -135
-82 -304 -178 -298 -169 -307 -175 -303 -202 3 -21 10 -28 26 -28 25 0 613 98
791 132 l120 23 -3 35 c-2 19 -6 38 -8 41 -2 4 -50 -2 -106 -12 -236 -44 -512
-89 -520 -87 -5 2 109 70 254 152 341 193 328 185 328 206 0 46 -15 56 -65 43z"/>
<path d="M322 5278 c-20 -199 -23 -185 51 -192 540 -51 869 -78 875 -72 2 3 8
49 13 103 4 54 10 121 13 150 l4 51 -38 4 c-36 3 -39 1 -45 -27 -3 -16 -9 -68
-12 -114 l-6 -83 -36 5 c-20 3 -100 12 -179 18 l-142 13 2 100 3 101 -36 3
-36 3 -7 -62 c-3 -34 -6 -77 -6 -95 l0 -34 -52 0 c-29 0 -108 5 -176 12 l-124
11 6 31 c3 17 8 68 12 114 l7 82 -40 0 -39 0 -12 -122z"/>
<path d="M9129 5176 c-3 -3 -3 -22 -1 -44 l4 -39 95 -11 c53 -6 99 -15 104
-19 8 -9 16 -169 8 -177 -3 -3 -39 -12 -80 -21 -129 -26 -119 -21 -119 -65 0
-29 4 -40 15 -40 16 0 545 117 785 174 l145 34 -2 37 c-2 21 -5 40 -8 43 -3 3
-47 11 -98 18 -50 7 -209 28 -352 47 -143 20 -305 41 -360 47 -55 6 -107 13
-116 16 -8 2 -18 2 -20 0z m490 -141 c106 -14 209 -25 229 -25 59 0 24 -15
-93 -40 -60 -13 -157 -33 -215 -46 -58 -12 -105 -21 -106 -20 -3 3 -14 156
-11 156 1 0 89 -11 196 -25z"/>
<path d="M1166 4898 c-3 -13 -6 -62 -6 -109 l0 -86 -302 -6 c-166 -4 -359 -7
-430 -7 l-128 0 0 -46 0 -46 428 7 c235 3 446 8 469 11 52 6 52 6 50 174 l-2
125 -36 3 c-31 3 -37 -1 -43 -20z"/>
<path d="M9136 4608 c-4 -35 -7 -103 -9 -153 l-2 -90 36 -3 36 -3 6 53 c4 29
7 77 7 106 l0 52 38 0 c20 0 213 -11 427 -25 215 -14 393 -25 398 -25 4 0 7
20 7 44 l0 44 -92 6 c-124 9 -837 56 -842 56 -3 0 -7 -28 -10 -62z"/>
<path d="M736 4420 c-332 -42 -381 -50 -399 -68 -20 -20 -20 -25 -8 -134 23
-205 36 -238 99 -238 30 0 683 80 785 97 22 3 49 15 60 26 21 21 21 51 -3 241
-13 110 -26 126 -98 125 -31 -1 -227 -23 -436 -49z m444 -42 c0 -7 7 -56 14
-108 8 -52 12 -98 8 -102 -8 -8 -761 -103 -767 -96 -5 5 -37 210 -33 214 2 1
170 23 373 49 204 25 375 47 380 50 19 7 25 5 25 -7z"/>
<path d="M9106 4258 c-7 -22 -46 -257 -46 -277 0 -13 10 -20 32 -25 17 -3 35
-3 39 1 5 5 15 53 24 108 9 55 18 101 20 103 5 5 315 -47 336 -56 14 -6 14
-15 -2 -97 -10 -49 -15 -93 -11 -96 4 -4 23 -9 42 -13 l35 -6 19 100 c16 93
19 100 39 95 62 -13 259 -45 281 -45 14 0 27 -4 30 -8 2 -4 -4 -54 -15 -111
-11 -57 -19 -105 -17 -106 2 -2 19 -6 39 -10 l36 -7 27 137 c14 75 26 144 26
154 0 15 -47 25 -377 80 -208 34 -394 66 -413 71 -78 19 -140 22 -144 8z"/>
<path d="M1125 3931 c-55 -16 -100 -32 -100 -37 1 -24 17 -74 24 -74 5 0 54
12 111 26 56 14 105 22 109 17 8 -9 54 -184 49 -188 -2 -1 -102 -28 -223 -59
-121 -32 -287 -75 -368 -97 -82 -23 -154 -38 -161 -36 -11 4 -61 185 -54 192
2 2 45 15 97 29 51 14 96 27 98 30 10 9 -9 67 -23 73 -8 3 -62 -8 -121 -24
-85 -23 -111 -35 -127 -56 l-19 -26 32 -123 c18 -68 38 -134 44 -148 21 -43
57 -47 160 -21 484 126 721 191 734 204 8 8 15 30 15 49 0 47 -60 259 -79 281
-22 24 -78 21 -198 -12z"/>
<path d="M9036 3835 c-8 -8 -17 -23 -20 -33 -2 -9 -18 -62 -35 -118 -37 -121
-38 -144 -8 -171 23 -22 224 -86 267 -86 14 0 113 38 220 86 l195 85 89 -23
c49 -14 91 -26 93 -29 4 -4 -45 -176 -52 -184 -2 -2 -44 8 -94 22 -49 14 -94
26 -99 26 -15 0 -33 -81 -19 -85 170 -56 244 -66 270 -37 22 24 90 267 82 292
-4 11 -16 27 -28 35 -32 21 -235 75 -255 68 -9 -3 -103 -43 -208 -89 l-190
-83 -60 18 c-32 11 -78 24 -101 30 -25 7 -43 18 -43 26 0 8 12 50 26 95 20 65
28 80 42 76 48 -15 195 -56 198 -56 5 0 26 81 22 85 -2 1 -51 16 -110 34 -120
35 -159 38 -182 16z"/>
<path d="M3030 1482 c-209 -355 -359 -616 -357 -618 1 -1 60 -36 132 -78 l130
-75 18 35 c10 20 17 37 15 39 -2 1 -40 24 -85 49 -46 26 -85 51 -88 55 -2 4
16 43 42 87 129 223 260 447 299 510 24 40 44 75 44 78 0 7 -61 46 -70 46 -3
-1 -39 -58 -80 -128z"/>
<path d="M7032 1498 c-26 -16 -31 -25 -26 -42 8 -29 267 -820 270 -824 3 -5
74 31 74 38 0 3 -14 46 -30 95 -17 49 -27 92 -23 96 5 3 38 23 74 43 l67 37
53 -68 c29 -38 56 -72 61 -78 10 -11 78 23 78 39 -1 14 -542 679 -555 682 -5
1 -25 -7 -43 -18z m297 -526 c-34 -19 -65 -30 -69 -26 -8 8 -140 385 -140 400
0 3 61 -71 135 -167 l135 -172 -61 -35z"/>
<path d="M3664 1208 c-32 -51 -99 -158 -149 -238 -179 -285 -257 -412 -253
-416 2 -2 21 -10 41 -19 l37 -15 46 80 c26 45 50 82 53 84 5 3 151 -51 159
-59 3 -2 -7 -50 -33 -162 -4 -17 2 -26 24 -38 52 -26 55 -23 78 98 12 61 49
251 82 422 34 171 61 313 61 317 0 7 -65 38 -80 38 -4 0 -34 -42 -66 -92z m42
-90 c-3 -13 -24 -111 -46 -218 -23 -107 -42 -195 -43 -196 -1 -1 -30 10 -65
24 -47 19 -62 30 -59 42 4 16 209 369 215 370 1 0 0 -10 -2 -22z"/>
<path d="M6573 1275 l-31 -13 40 -114 c22 -62 80 -229 129 -370 86 -252 88
-258 68 -269 -34 -18 -131 -49 -138 -44 -4 2 -20 47 -36 99 -15 53 -32 96 -37
96 -19 0 -79 -30 -75 -37 2 -5 19 -53 37 -108 17 -55 39 -108 47 -117 23 -26
67 -22 168 12 106 36 133 52 141 86 8 30 -252 794 -270 794 -6 -1 -25 -7 -43
-15z"/>
<path d="M5823 1070 c-109 -22 -131 -32 -139 -67 -5 -17 19 -165 62 -392 75
-399 79 -411 143 -411 40 0 240 39 264 51 41 23 40 44 -33 431 -48 254 -75
377 -86 390 -22 23 -85 22 -211 -2z m153 -97 c4 -21 33 -175 65 -343 32 -168
55 -308 51 -311 -11 -10 -183 -41 -190 -35 -6 7 -132 650 -132 677 0 12 18 20
73 32 118 24 125 23 133 -20z"/>
<path d="M4616 1018 c-3 -18 -19 -197 -36 -398 -17 -201 -32 -379 -35 -396 -5
-30 -4 -31 37 -37 23 -3 44 -4 46 -2 4 4 31 301 51 565 7 80 14 160 17 179 l5
33 92 -7 c51 -4 94 -8 96 -10 7 -7 -22 -280 -31 -290 -5 -5 -38 -8 -75 -6
l-65 3 4 -39 c5 -35 113 -443 120 -448 2 -1 22 -5 46 -9 31 -4 42 -3 42 6 0 7
-25 101 -54 208 l-53 195 31 3 c55 5 85 22 95 56 12 40 36 329 28 349 -13 35
-54 47 -198 62 -79 8 -147 15 -151 15 -4 0 -9 -15 -12 -32z"/>
<path d="M5280 998 c0 -13 9 -192 20 -398 11 -206 20 -392 20 -412 l0 -38 45
0 c40 0 45 2 45 23 0 12 -9 186 -20 387 -11 201 -20 386 -20 413 l0 47 -45 0
c-40 0 -45 -2 -45 -22z"/>
</g>
</svg>
